<svg width="21" height="25" viewBox="0 0 21 25" fill="#242424" xmlns="http://www.w3.org/2000/svg">
<path fill-rule="evenodd" clip-rule="evenodd" d="M4.56748 12.5343C7.33529 14.0154 9.45755 16.4741 10.5238 19.4349C11.5781 16.4721 13.6966 14.0112 16.4642 12.5343C13.6897 11.0661 11.5686 8.60212 10.5238 5.63381C9.47646 8.60565 7.34891 11.0705 4.56748 12.5343ZM10.5079 24.9998C10.281 24.9998 10.0635 24.9094 9.90303 24.7484C9.74261 24.5874 9.65252 24.369 9.65252 24.1413C9.65252 18.624 5.43876 13.4089 0.971556 13.4089C0.85054 13.4255 0.727361 13.4159 0.610334 13.3808C0.493308 13.3457 0.385153 13.2858 0.293106 13.2052C0.201058 13.1246 0.127279 13.0252 0.0767208 12.9136C0.0261631 12.802 0 12.6808 0 12.5582C0 12.4356 0.0261631 12.3144 0.0767208 12.2028C0.127279 12.0912 0.201058 11.9918 0.293106 11.9112C0.385153 11.8306 0.493308 11.7707 0.610334 11.7356C0.727361 11.7005 0.85054 11.6909 0.971556 11.7076C5.42292 11.7076 9.65252 6.49241 9.65252 0.975158C9.63593 0.853694 9.64547 0.730058 9.68046 0.612597C9.71545 0.495137 9.77507 0.386581 9.85537 0.294192C9.93566 0.201804 10.0348 0.12775 10.146 0.0770053C10.2571 0.0262601 10.3779 0 10.5 0C10.6222 0 10.7429 0.0262601 10.8541 0.0770053C10.9653 0.12775 11.0643 0.201804 11.1446 0.294192C11.2249 0.386581 11.2846 0.495137 11.3196 0.612597C11.3546 0.730058 11.3641 0.853694 11.3475 0.975158C11.3475 6.49241 15.5612 11.7076 20.0284 11.7076C20.1495 11.6909 20.2726 11.7005 20.3897 11.7356C20.5067 11.7707 20.6148 11.8306 20.7069 11.9112C20.7989 11.9918 20.8727 12.0912 20.9233 12.2028C20.9738 12.3144 21 12.4356 21 12.5582C21 12.6808 20.9738 12.802 20.9233 12.9136C20.8727 13.0252 20.7989 13.1246 20.7069 13.2052C20.6148 13.2858 20.5067 13.3457 20.3897 13.3808C20.2726 13.4159 20.1495 13.4255 20.0284 13.4089C15.5771 13.4089 11.3475 18.624 11.3475 24.1413C11.3518 24.2539 11.3332 24.3661 11.2928 24.4712C11.2523 24.5763 11.1909 24.672 11.1123 24.7524C11.0337 24.8328 10.9395 24.8962 10.8356 24.9387C10.7317 24.9813 10.6201 25.0021 10.5079 24.9998Z" />
</svg>
